PathFileType	4	(X/Y/Z)	C:\Users\Biomechanik\SynologyDrive\AlexP\Athlete_03\Athlete_3_25_03_31\Walking_06\marker_experimental.trc
DataRate	CameraRate	NumFrames	NumMarkers	Units	OrigDataRate	OrigDataStartFrame	OrigNumFrames
200.000000	200.000000	4	53	mm	200.000000	278	445
Frame#	Time	GLAB			RFHD			LFHD			C7			T6			SPINMOL			SPINM2			SPINM3			T12			BELTOL			BELT2			BELT3			SACROL			SACR2			SACR3			LTHOL			LTH2			LTH3			LSHAOL			LSHA2			LSHA3			LHEE			LTOE			LM5			RTHOL			RTH2			RTH3			RSHAOL			RSHA2			RSHA3			RHEE			RTOE			RM5			STRN			XIPH			LACR			LUAOL			LUA2			LUA3			LLAOL			LLA2			LLA3			LWRR			LWRU			RACR			RUAOL			RUA2			RUA3			RLAOL			RLA2			RLA3			RWRR			RWRU			
		X1	Y1	Z1	X2	Y2	Z2	X3	Y3	Z3	X4	Y4	Z4	X5	Y5	Z5	X6	Y6	Z6	X7	Y7	Z7	X8	Y8	Z8	X9	Y9	Z9	X10	Y10	Z10	X11	Y11	Z11	X12	Y12	Z12	X13	Y13	Z13	X14	Y14	Z14	X15	Y15	Z15	X16	Y16	Z16	X17	Y17	Z17	X18	Y18	Z18	X19	Y19	Z19	X20	Y20	Z20	X21	Y21	Z21	X22	Y22	Z22	X23	Y23	Z23	X24	Y24	Z24	X25	Y25	Z25	X26	Y26	Z26	X27	Y27	Z27	X28	Y28	Z28	X29	Y29	Z29	X30	Y30	Z30	X31	Y31	Z31	X32	Y32	Z32	X33	Y33	Z33	X34	Y34	Z34	X35	Y35	Z35	X36	Y36	Z36	X37	Y37	Z37	X38	Y38	Z38	X39	Y39	Z39	X40	Y40	Z40	X41	Y41	Z41	X42	Y42	Z42	X43	Y43	Z43	X44	Y44	Z44	X45	Y45	Z45	X46	Y46	Z46	X47	Y47	Z47	X48	Y48	Z48	X49	Y49	Z49	X50	Y50	Z50	X51	Y51	Z51	X52	Y52	Z52	X53	Y53	Z53	

279	1.39	1531.100463867188	1589.435424804688	246.1822662353518	1484.760986328125	1620.507568359375	312.2144165039065	1491.13623046875	1620.349609375	173.6018371582034	1293.671508789062	1447.000732421875	234.1764984130862	1236.1064453125	1276.3408203125	230.8057861328127	1228.976684570312	1236.068115234375	210.0825195312502	1226.19775390625	1228.49755859375	259.8192138671877	1236.805908203125	1171.626708984375	226.2307128906252	1261.557739257812	1106.253662109375	227.975051879883	1224.476928710938	1070.509399414062	215.2125701904299	1226.55126953125	1068.91162109375	265.4545898437502	1221.767456054688	1008.338195800781	237.0207366943362	1239.427734375	960.2854614257814	206.3905334472659	1240.805419921875	956.9205932617189	257.7976379394534	1226.546020507812	899.1541748046876	228.6500701904299	1410.116943359375	683.3086547851564	15.93702793121364	1385.751831054688	612.5099487304689	42.20398712158229	1429.694946289062	625.6906738281251	22.14004898071315	1389.189331054688	407.0730285644532	11.09064197540309	1314.677856445312	387.3517150878907	31.23988151550317	1355.013549804688	357.5116271972657	25.53280830383326	1193.338745117188	252.9317321777345	136.1086120605471	1336.314453125	86.06992340087899	128.9968261718753	1281.792358398438	96.26461029052743	38.23332977294945	1339.077514648438	686.1937255859376	397.1128234863284	1399.492431640625	635.3936767578126	398.2994079589847	1352.206787109375	628.1184692382814	384.416687011719	1328.418090820312	337.8983764648438	363.7545166015627	1359.244873046875	265.6495666503907	357.7696838378909	1313.2275390625	279.6765747070313	345.4803161621096	1270.777465820312	71.7798156738282	226.4116821289065	1483.146362304688	47.04165267944345	234.8254394531253	1429.33056640625	39.60153198242196	335.8454284667972	1462.39599609375	1347.804443359375	229.7268829345706	1479.977416992188	1204.69140625	227.8623504638675	1362.285888671875	1412.3251953125	58.70171737670923	1349.91162109375	1260.615478515625	-44.36868286132788	1335.196533203125	1199.690307617188	-65.34928894042945	1383.375244140625	1203.762451171875	-47.02235794067357	1376.838623046875	1000.366027832031	-104.2532653808591	1346.732666015625	929.0388793945314	-88.13516235351538	1391.279541015625	940.7529907226564	-107.6074523925779	1425.127075195312	842.4434814453126	-115.9063568115232	1473.208984375	847.8724975585939	-52.64070129394504	1377.755981445312	1403.599731445312	400.3149108886721	1367.520629882812	1256.046752929688	501.8120422363284	1394.52001953125	1196.27001953125	508.1895751953128	1345.5751953125	1198.30029296875	524.8237304687502	1407.994995117188	980.5153198242189	552.6486816406252	1476.071899414062	942.5491943359376	569.6104736328127	1434.108154296875	923.2341308593751	550.9624633789065	1491.191650390625	853.5505371093751	555.102233886719	1524.77783203125	851.0097656250001	481.6485290527347	
280	1.395	1538.045288085938	1589.311889648438	245.8000793457034	1491.889526367188	1620.740112304688	311.7961120605472	1498.215454101562	1620.309204101562	173.1827697753909	1300.17041015625	1447.59716796875	234.1106719970705	1242.52294921875	1276.935180664062	230.9344635009768	1235.411376953125	1236.664306640625	210.2352752685549	1232.534057617188	1229.114990234375	259.9694824218752	1243.121337890625	1172.240600585938	226.4088439941409	1267.875366210938	1106.854614257812	228.1334381103518	1230.76220703125	1071.154663085938	215.0088500976565	1232.648315429688	1069.513916015625	265.2558288574221	1227.977294921875	1008.960510253906	236.7431488037112	1245.947998046875	960.9680786132814	205.9915008544924	1246.893432617188	957.5071411132814	257.4243469238284	1232.807739257812	899.8092041015626	228.0224609375002	1419.996948242188	684.7272949218751	15.86681461334255	1395.51611328125	613.5843505859376	40.95541000366237	1439.814697265625	627.3171997070314	22.06333160400417	1401.888427734375	405.8634643554689	12.10481166839625	1327.8818359375	384.2212524414063	32.10546112060571	1368.97265625	355.4216918945313	26.33950996398951	1209.6181640625	245.9156951904298	136.4794158935549	1358.57958984375	84.34086608886727	128.899597167969	1303.627563476562	92.76940917968759	38.16521835327173	1342.344970703125	687.1464233398439	396.964538574219	1402.162963867188	635.7501220703126	398.6016235351565	1354.936767578125	628.9459838867189	384.3432617187502	1329.138916015625	338.6666564941407	363.5833435058596	1359.668334960938	266.2924499511719	357.9261474609377	1313.7880859375	280.5107421875001	345.3056335449221	1271.0947265625	72.5843582153321	226.2409973144534	1483.231567382812	47.020606994629	234.8280334472659	1429.35205078125	39.60629272460946	335.8530578613284	1468.768432617188	1348.391845703125	229.7705383300784	1486.298217773438	1205.241455078125	228.1782379150393	1368.617919921875	1412.66015625	58.66250610351587	1355.337768554688	1260.80029296875	-44.29963684082006	1340.291748046875	1199.901245117188	-65.11129760742163	1388.550537109375	1203.802490234375	-46.99181747436498	1380.193603515625	1000.443176269531	-103.9770431518552	1349.340209960938	929.4351196289064	-87.7271575927732	1393.872802734375	940.6452026367189	-107.480171203613	1426.491088867188	841.9504394531251	-116.0542984008787	1474.884643554688	846.6522827148439	-53.00972366332981	1384.236083984375	1404.507934570312	400.2568969726565	1374.55859375	1257.239013671875	502.1768493652346	1401.79296875	1197.55712890625	508.623474121094	1352.874145507812	1199.465576171875	525.3645629882815	1417.3193359375	981.9793090820314	553.0473632812502	1486.041137695312	944.9416503906251	569.4916992187502	1444.147583007812	925.1243896484376	551.0527954101565	1502.367797851562	856.1726074218751	554.4788818359377	1535.940185546875	854.6796875000001	480.9857177734378	
281	1.4	1544.994750976562	1589.120849609375	245.4069519042972	1499.024658203125	1620.90625	311.3648376464847	1505.300170898438	1620.197631835938	172.7515716552737	1306.674194335938	1448.1337890625	234.0301055908205	1248.933349609375	1277.475708007812	231.0321044921877	1241.843139648438	1237.205810546875	210.3513031005862	1238.858520507812	1229.678100585938	260.083679199219	1249.413208007812	1172.802978515625	226.5498046875002	1274.176391601562	1107.399047851562	228.2499847412112	1237.052612304688	1071.7705078125	214.7306823730471	1238.732177734375	1070.0830078125	264.983337402344	1234.172607421875	1009.552062988281	236.3879241943362	1252.438598632812	961.5863037109376	205.5841979980471	1252.969116210938	958.0531005859376	257.0397949218752	1239.078857421875	900.4036254882814	227.4192962646487	1429.763793945312	686.0855712890626	15.82931995391872	1405.19140625	614.6217651367189	39.78387069702174	1449.813842773438	628.8833618164064	22.05350112915066	1414.486450195312	404.5498657226564	13.1568222045901	1341.064575195312	380.9413757324219	33.04997253417994	1382.888671875	353.2297363281251	27.16523170471217	1226.150146484375	238.7152557373048	136.8269805908205	1380.911010742188	82.65875244140634	128.8147430419924	1325.593994140625	89.28578186035165	38.10121917724634	1345.64794921875	688.0712280273439	396.8246765136721	1404.879272460938	636.0908203125001	398.910583496094	1357.713134765625	629.7612915039064	384.2781066894534	1329.942749023438	339.4222717285157	363.4144592285159	1360.170043945312	266.9264221191407	358.0495605468752	1314.419921875	281.3360595703126	345.1419677734377	1271.418823242188	73.39390563964851	226.0737152099612	1483.313232421875	46.99152374267587	234.8195495605472	1429.377563476562	39.61630630493173	335.8544006347659	1475.14599609375	1348.903076171875	229.8078308105472	1492.613525390625	1205.716918945312	228.4908752441409	1374.964477539062	1412.932983398438	58.61240768432643	1360.759765625	1260.930908203125	-44.24307632446264	1345.375854492188	1200.062133789062	-64.87601470947241	1393.719970703125	1203.789428710938	-46.98326110839818	1383.553955078125	1000.486755371094	-103.7132949829099	1351.971435546875	929.8012695312501	-87.31827545165991	1396.480712890625	940.5107421875001	-107.3527526855466	1427.879150390625	841.4536132812501	-116.1908721923826	1476.580932617188	845.4398803710939	-53.37713241577121	1390.705322265625	1405.33935546875	400.1890258789065	1381.578857421875	1258.359008789062	502.5216064453127	1409.050903320312	1198.771728515625	509.0433349609378	1360.1572265625	1200.561889648438	525.8818969726565	1426.633178710938	983.4040527343751	553.4324951171877	1495.978881835938	947.3040161132814	569.3610839843752	1454.181518554688	926.9885253906251	551.1301879882815	1513.501220703125	858.7786254882814	553.840759277344	1547.060546875	858.3488159179689	480.320495605469	
282	1.405	1551.949340820312	1588.861572265625	245.0044403076175	1506.16650390625	1621.00439453125	310.9219665527347	1512.39111328125	1620.013793945312	172.3095703125003	1313.184204101562	1448.608642578125	233.9349060058596	1255.338989257812	1277.959716796875	231.099060058594	1248.27294921875	1237.690063476562	210.431091308594	1245.173217773438	1230.183715820312	260.1619567871096	1255.682250976562	1173.3115234375	226.6541595458987	1280.462036132812	1107.884399414062	228.3256530761721	1243.349365234375	1072.353759765625	214.3826904296877	1244.805786132812	1070.616333007812	264.6416015625002	1240.3544921875	1010.110900878906	235.9607543945315	1258.898559570312	962.1391601562501	205.1678314208987	1259.036743164062	958.5540771484376	256.6413269042971	1245.35693359375	900.9355468750001	226.8388671875002	1439.402954101562	687.3740844726564	15.82639980316189	1414.775268554688	615.6115722656251	38.70708847045925	1459.68701171875	630.3769531250001	22.11797904968288	1426.986450195312	403.1300048828126	14.24061489105251	1354.22900390625	377.5171508789063	34.05983352661158	1396.7626953125	350.9388732910157	28.00567245483424	1242.936889648438	231.355194091797	137.1475982666018	1403.295654296875	81.04006195068368	128.7397155761721	1347.681518554688	85.83487701416024	38.0385246276858	1348.992797851562	688.9629516601564	396.6961364746096	1407.648559570312	636.4083251953126	399.2222900390628	1360.54150390625	630.5564575195314	384.2227478027346	1330.826538085938	340.1604309082032	363.2459106445315	1360.74755859375	267.5466308593751	358.1391906738284	1315.120361328125	282.1480407714844	344.9863281250002	1271.750122070312	74.20528411865241	225.9068450927737	1483.39111328125	46.95368194580087	234.7977600097659	1429.406860351562	39.63183212280282	335.8486938476565	1481.529541015625	1349.334838867188	229.8392028808597	1498.924194335938	1206.11572265625	228.800231933594	1381.326782226562	1413.142211914062	58.55150604248072	1366.181518554688	1261.006591796875	-44.19917678832983	1350.454345703125	1200.171752929688	-64.64631652832007	1398.886962890625	1203.722290039062	-46.99485778808568	1386.924926757812	1000.495483398438	-103.4625625610349	1354.630249023438	930.1362304687501	-86.91114044189428	1399.1083984375	940.3485717773439	-107.226020812988	1429.295654296875	840.9498901367189	-116.3162536621091	1478.304443359375	844.2331542968751	-53.7437667846677	1397.163208007812	1406.09228515625	400.1118164062503	1388.580810546875	1259.403442382812	502.8454589843752	1416.295166015625	1199.912841796875	509.4478454589847	1367.425537109375	1201.585205078125	526.3739013671877	1435.93798828125	984.7872924804689	553.8032226562502	1505.886596679688	949.6337280273439	569.2163085937502	1464.211059570312	928.8231811523439	551.1929931640627	1524.592163085938	861.3665771484376	553.1883544921877	1558.133056640625	862.0095825195314	479.6513671875003	
